<?xml version="1.0" encoding="utf-8"?>
<!-- Generator: Adobe Illustrator 24.0.2, SVG Export Plug-In . SVG Version: 6.00 Build 0)  -->
<svg version="1.1" id="Layer_1" xmlns="http://www.w3.org/2000/svg" xmlns:xlink="http://www.w3.org/1999/xlink" x="0px" y="0px"
	 viewBox="0 0 512 512" style="enable-background:new 0 0 512 512;" xml:space="preserve">
<style type="text/css">
	.st0{fill:#527C5E;}
	.st1{fill:#FFDD00;}
	.st2{fill:#F59F0C;}
	.st3{fill:#E20613;}
	.st4{fill:#831001;}
</style>
<rect x="82.9883" y="209.0793" class="st0" width="335.4075" height="295.3142"/>
<rect x="70.6404" y="159.1221" class="st0" width="360.1062" height="76.5933"/>
<g>
	<path class="st1" d="M144.2333,192.5232c14.6804,0,26.5857-11.9022,26.5857-26.5916c0-2.3568-0.3386-4.6248-0.9259-6.8094h-51.3286
		c-0.5757,2.1846-0.9143,4.4526-0.9143,6.8094C117.6502,180.6209,129.55,192.5232,144.2333,192.5232z"/>
	<path class="st1" d="M254.3931,192.5232c14.6809,0,26.5892-11.9022,26.5892-26.5916c0-2.3568-0.3416-4.6248-0.9233-6.8094h-51.3281
		c-0.5788,2.1846-0.9204,4.4526-0.9204,6.8094C227.8105,180.6209,239.7068,192.5232,254.3931,192.5232z"/>
	<path class="st1" d="M364.5595,192.5232c14.6803,0,26.5825-11.9022,26.5825-26.5916c0-2.3568-0.3409-4.6248-0.9197-6.8094h-51.3372
		c-0.5762,2.1846-0.9056,4.4526-0.9056,6.8094C337.9795,180.6209,349.8701,192.5232,364.5595,192.5232z"/>
	<path class="st1" d="M107.6773,234.2048c0-14.6863-11.9022-26.5825-26.58-26.5825c-3.7129,0-7.2509,0.7683-10.4568,2.1397v25.9534
		h12.3478v24.9771C96.7781,259.7102,107.6773,248.2505,107.6773,234.2048z"/>
	<path class="st1" d="M191.2606,260.7879c14.6803,0,26.5831-11.8998,26.5831-26.5831c0-14.6863-11.9028-26.5825-26.5831-26.5825
		c-14.6863,0-26.5802,11.8961-26.5802,26.5825C164.6805,248.8881,176.5743,260.7879,191.2606,260.7879z"/>
	<path class="st1" d="M301.4088,260.7879c14.6955,0,26.5887-11.8998,26.5887-26.5831c0-14.6863-11.8932-26.5825-26.5887-26.5825
		c-14.6742,0-26.5709,11.8961-26.5709,26.5825C274.8379,248.8881,286.7346,260.7879,301.4088,260.7879z"/>
	<path class="st1" d="M411.5784,207.6223c-14.6839,0-26.5832,11.8961-26.5832,26.5825c0,14.6833,11.8993,26.5831,26.5832,26.5831
		c2.3652,0,4.6332-0.3415,6.8174-0.9142v-24.1583h12.3509V215.811C425.9024,210.7711,419.1143,207.6223,411.5784,207.6223z"/>
	<path class="st1" d="M144.2333,330.1713c14.6804,0,26.5857-11.9023,26.5857-26.5857c0-14.6717-11.9053-26.5739-26.5857-26.5739
		c-14.6833,0-26.5831,11.9022-26.5831,26.5739C117.6502,318.269,129.55,330.1713,144.2333,330.1713z"/>
	<path class="st1" d="M254.3931,330.1713c14.6809,0,26.5892-11.9023,26.5892-26.5857c0-14.6717-11.9083-26.5739-26.5892-26.5739
		c-14.6864,0-26.5826,11.9022-26.5826,26.5739C227.8105,318.269,239.7068,330.1713,254.3931,330.1713z"/>
	<path class="st1" d="M364.5595,330.1713c14.6803,0,26.5825-11.9023,26.5825-26.5857c0-14.6717-11.9022-26.5739-26.5825-26.5739
		c-14.6894,0-26.58,11.9022-26.58,26.5739C337.9795,318.269,349.8701,330.1713,364.5595,330.1713z"/>
	<path class="st1" d="M107.6773,371.8444c0-14.0396-10.8992-25.5176-24.689-26.4793v52.967
		C96.7781,397.3613,107.6773,385.8839,107.6773,371.8444z"/>
	<path class="st1" d="M191.2606,345.2643c-14.6863,0-26.5802,11.9022-26.5802,26.5802c0,14.6802,11.8938,26.5825,26.5802,26.5825
		c14.6803,0,26.5831-11.9023,26.5831-26.5825C217.8437,357.1665,205.9409,345.2643,191.2606,345.2643z"/>
	<path class="st1" d="M301.4088,345.2643c-14.6742,0-26.5709,11.9022-26.5709,26.5802c0,14.6802,11.8967,26.5825,26.5709,26.5825
		c14.6955,0,26.5887-11.9023,26.5887-26.5825C327.9975,357.1665,316.1043,345.2643,301.4088,345.2643z"/>
	<path class="st1" d="M384.9952,371.8444c0,14.6802,11.8993,26.5825,26.5832,26.5825c2.3652,0,4.6332-0.3264,6.8174-0.9166v-51.3195
		c-2.1841-0.5879-4.4521-0.9265-6.8174-0.9265C396.8945,345.2643,384.9952,357.1665,384.9952,371.8444z"/>
	<path class="st1" d="M144.2333,467.8077c14.6804,0,26.5857-11.9114,26.5857-26.5795c0-14.6778-11.9053-26.5771-26.5857-26.5771
		c-14.6833,0-26.5831,11.8993-26.5831,26.5771C117.6502,455.8964,129.55,467.8077,144.2333,467.8077z"/>
	<path class="st1" d="M254.3931,467.8077c14.6809,0,26.5892-11.9114,26.5892-26.5795c0-14.6778-11.9083-26.5771-26.5892-26.5771
		c-14.6864,0-26.5826,11.8993-26.5826,26.5771C227.8105,455.8964,239.7068,467.8077,254.3931,467.8077z"/>
	<path class="st1" d="M364.5595,467.8077c14.6803,0,26.5825-11.9114,26.5825-26.5795c0-14.6778-11.9022-26.5771-26.5825-26.5771
		c-14.6894,0-26.58,11.8993-26.58,26.5771C337.9795,455.8964,349.8701,467.8077,364.5595,467.8077z"/>
	<path class="st1" d="M82.9883,483.0017v21.3918h24.1936C104.917,492.7551,95.0717,483.8509,82.9883,483.0017z"/>
	<path class="st1" d="M191.2606,482.9069c-12.9473,0-23.7097,9.2367-26.0901,21.4866h52.1656
		C214.9612,492.1436,204.1927,482.9069,191.2606,482.9069z"/>
	<path class="st1" d="M301.4088,482.9069c-12.9319,0-23.6944,9.2367-26.0779,21.4866h52.1596
		C325.1247,492.1436,314.3561,482.9069,301.4088,482.9069z"/>
	<path class="st1" d="M385.4882,504.3935h32.9076V483.818c-2.1841-0.5878-4.4521-0.9111-6.8174-0.9111
		C398.6427,482.9069,387.8741,492.1436,385.4882,504.3935z"/>
</g>
<g>
	<path class="st2" d="M70.6404,235.4012v0.3142h12.3478v24.9771c13.3983-0.9526,24.0332-11.8044,24.6325-25.2913H70.6404z"/>
	<path class="st2" d="M164.7256,235.4012c0.6352,14.1167,12.2524,25.3867,26.5351,25.3867c14.2742,0,25.8914-11.27,26.5174-25.3867
		H164.7256z"/>
	<path class="st2" d="M274.8914,235.4012c0.6292,14.1167,12.2469,25.3867,26.5174,25.3867c14.292,0,25.906-11.27,26.5358-25.3867
		H274.8914z"/>
	<path class="st2" d="M385.0578,235.4012c0.6231,14.1167,12.2402,25.3867,26.5206,25.3867c2.3652,0,4.6332-0.3415,6.8174-0.9142
		v-24.1583h12.3509v-0.3142H385.0578z"/>
	<path class="st2" d="M144.2333,330.1713c14.6804,0,26.5857-11.9023,26.5857-26.5857c0-14.6717-11.9053-26.5739-26.5857-26.5739
		c-14.6833,0-26.5831,11.9022-26.5831,26.5739C117.6502,318.269,129.55,330.1713,144.2333,330.1713z"/>
	<path class="st2" d="M254.3931,330.1713c14.6809,0,26.5892-11.9023,26.5892-26.5857c0-14.6717-11.9083-26.5739-26.5892-26.5739
		c-14.6864,0-26.5826,11.9022-26.5826,26.5739C227.8105,318.269,239.7068,330.1713,254.3931,330.1713z"/>
	<path class="st2" d="M364.5595,330.1713c14.6803,0,26.5825-11.9023,26.5825-26.5857c0-14.6717-11.9022-26.5739-26.5825-26.5739
		c-14.6894,0-26.58,11.9022-26.58,26.5739C337.9795,318.269,349.8701,330.1713,364.5595,330.1713z"/>
	<path class="st2" d="M107.6773,371.8444c0-14.0396-10.8992-25.5176-24.689-26.4793v52.967
		C96.7781,397.3613,107.6773,385.8839,107.6773,371.8444z"/>
	<path class="st2" d="M191.2606,345.2643c-14.6863,0-26.5802,11.9022-26.5802,26.5802c0,14.6802,11.8938,26.5825,26.5802,26.5825
		c14.6803,0,26.5831-11.9023,26.5831-26.5825C217.8437,357.1665,205.9409,345.2643,191.2606,345.2643z"/>
	<path class="st2" d="M301.4088,345.2643c-14.6742,0-26.5709,11.9022-26.5709,26.5802c0,14.6802,11.8967,26.5825,26.5709,26.5825
		c14.6955,0,26.5887-11.9023,26.5887-26.5825C327.9975,357.1665,316.1043,345.2643,301.4088,345.2643z"/>
	<path class="st2" d="M384.9952,371.8444c0,14.6802,11.8993,26.5825,26.5832,26.5825c2.3652,0,4.6332-0.3264,6.8174-0.9166v-51.3195
		c-2.1841-0.5879-4.4521-0.9265-6.8174-0.9265C396.8945,345.2643,384.9952,357.1665,384.9952,371.8444z"/>
	<path class="st2" d="M144.2333,467.8077c14.6804,0,26.5857-11.9114,26.5857-26.5795c0-14.6778-11.9053-26.5771-26.5857-26.5771
		c-14.6833,0-26.5831,11.8993-26.5831,26.5771C117.6502,455.8964,129.55,467.8077,144.2333,467.8077z"/>
	<path class="st2" d="M254.3931,467.8077c14.6809,0,26.5892-11.9114,26.5892-26.5795c0-14.6778-11.9083-26.5771-26.5892-26.5771
		c-14.6864,0-26.5826,11.8993-26.5826,26.5771C227.8105,455.8964,239.7068,467.8077,254.3931,467.8077z"/>
	<path class="st2" d="M364.5595,467.8077c14.6803,0,26.5825-11.9114,26.5825-26.5795c0-14.6778-11.9022-26.5771-26.5825-26.5771
		c-14.6894,0-26.58,11.8993-26.58,26.5771C337.9795,455.8964,349.8701,467.8077,364.5595,467.8077z"/>
	<path class="st2" d="M82.9883,483.0017v21.3918h24.1936C104.917,492.7551,95.0717,483.8509,82.9883,483.0017z"/>
	<path class="st2" d="M191.2606,482.9069c-12.9473,0-23.7097,9.2367-26.0901,21.4866h52.1656
		C214.9612,492.1436,204.1927,482.9069,191.2606,482.9069z"/>
	<path class="st2" d="M301.4088,482.9069c-12.9319,0-23.6944,9.2367-26.0779,21.4866h52.1596
		C325.1247,492.1436,314.3561,482.9069,301.4088,482.9069z"/>
	<path class="st2" d="M385.4882,504.3935h32.9076V483.818c-2.1841-0.5878-4.4521-0.9111-6.8174-0.9111
		C398.6427,482.9069,387.8741,492.1436,385.4882,504.3935z"/>
</g>
<path class="st3" d="M300.0794,152.7023c0,12.5138-17.815,22.6501-39.7796,22.6501c-21.9699,0-39.785-10.1364-39.785-22.6501
	c0-44.3861,39.785-22.6647,39.785-22.6647S300.0794,110.3672,300.0794,152.7023z"/>
<path class="st4" d="M136.0234,159.1221c45.6,27.7825,78.5312,7.1358,78.5312,7.1358s6.3966,2.3774-15.0396-8.1893
	c-33.5282,10.2312-97.6703-74.8748-75.3436-92.5708c-17.3312-14.9034-37.3991-30.7914-49.429-9.7412
	C70.7773,69.359,74.1874,121.4416,136.0234,159.1221z"/>
<path class="st3" d="M245.8573,148.4696c0,0-55.8374-43.4566-78.7368-102.8701c-9.8865-25.6689-40.6427-39.3193-62.0254-34.0272
	c-6.8952,1.7039-20.6764,26.1941-30.3527,44.1843c11.7959-3.0959,35.2411,1.3975,47.9568,27.1229
	c8.376,16.9659,37.3985,73.7764,112.9652,81.1671C255.7645,169.7484,245.8573,148.4696,245.8573,148.4696z"/>
<path class="st4" d="M376.2126,159.1221c-45.6,27.7825-78.5373,7.1358-78.5373,7.1358s-6.3968,2.3774,15.051-8.1893
	c33.5196,10.2312,97.6673-74.8748,75.3411-92.5708c17.3251-14.9034,37.4046-30.7914,49.4254-9.7412
	C441.4526,69.359,438.0509,121.4416,376.2126,159.1221z"/>
<path class="st3" d="M266.3701,148.4696c0,0,55.8427-43.4566,78.7361-102.8701c9.9017-25.6689,40.6489-39.3193,62.0316-34.0272
	c6.8951,1.7039,20.6733,26.1941,30.355,44.1843c-11.8014-3.0959-35.2436,1.3975-47.9532,27.1229
	c-8.382,16.9659-37.3991,73.7764-112.9681,81.1671C256.4622,169.7484,266.3701,148.4696,266.3701,148.4696z"/>
<rect x="218.0395" y="209.0793" class="st4" width="65.2994" height="295.3142"/>
<rect x="212.6106" y="154.2931" class="st3" width="76.1538" height="86.255"/>
<path class="st3" d="M247.1064,154.9344c-82.7608,20.0382-125.057,135.6032-125.057,135.6032l-1.5143-36.3658l-33.4065-6.0344
	c0,0,58.3332-98.8454,111.4606-98.0915C220.699,152.2719,239.1105,155.2341,247.1064,154.9344z"/>
<path class="st3" d="M260.2998,154.9344c82.7615,20.0382,125.0722,135.6032,125.0722,135.6032l1.5021-36.3658l33.4157-6.0344
	c0,0-58.3393-98.8454-111.466-98.0915C286.7194,152.2719,268.3081,155.2341,260.2998,154.9344z"/>
</svg>
